 <svg
    width="56"
    height="24"
    viewBox="0 0 56 24"
    fill="none"
    xmlns="http://www.w3.org/2000/svg"
  >
    <path
      d="M-0.00982935 1.56739H4.21546V23H-0.00982935V1.56739ZM11.9489 10.3241C12.3163 9.34437 12.9185 8.60954 13.7554 8.11965C14.6127 7.62976 15.5618 7.38481 16.6028 7.38481V11.7938C15.3985 11.6509 14.3167 11.8959 13.3573 12.5286C12.4184 13.1614 11.9489 14.2126 11.9489 15.6823V23H7.99917V7.691H11.9489V10.3241ZM22.078 12.0388C22.078 12.447 22.3433 12.7838 22.874 13.0491C23.4251 13.2941 24.0885 13.5186 24.8642 13.7227C25.6398 13.9065 26.4155 14.1514 27.1912 14.4576C27.9668 14.7433 28.62 15.2332 29.1507 15.9272C29.7018 16.6212 29.9774 17.4888 29.9774 18.5298C29.9774 20.1015 29.3855 21.316 28.2016 22.1733C27.0381 23.0102 25.5786 23.4287 23.8232 23.4287C20.6797 23.4287 18.5365 22.2141 17.3934 19.7851L20.8226 17.8562C21.2717 19.183 22.2719 19.8463 23.8232 19.8463C25.2316 19.8463 25.9358 19.4075 25.9358 18.5298C25.9358 18.1215 25.6603 17.7949 25.1091 17.55C24.5784 17.2846 23.9252 17.0499 23.1496 16.8458C22.3739 16.6417 21.5983 16.3865 20.8226 16.0803C20.047 15.7741 19.3836 15.2945 18.8324 14.6413C18.3017 13.9677 18.0364 13.1308 18.0364 12.1306C18.0364 10.6201 18.5875 9.43622 19.6897 8.57892C20.8124 7.7012 22.2004 7.26234 23.8538 7.26234C25.0989 7.26234 26.2318 7.54811 27.2524 8.11965C28.273 8.67077 29.0793 9.46684 29.6712 10.5079L26.3032 12.3449C25.8134 11.3039 24.9969 10.7834 23.8538 10.7834C23.3435 10.7834 22.9148 10.8957 22.5678 11.1202C22.2413 11.3447 22.078 11.6509 22.078 12.0388ZM43.943 7.691H47.8928V23H43.943V21.1935C42.7591 22.6836 41.0956 23.4287 38.9523 23.4287C36.9111 23.4287 35.1557 22.653 33.686 21.1017C32.2368 19.53 31.5121 17.6112 31.5121 15.3455C31.5121 13.0798 32.2368 11.1712 33.686 9.61993C35.1557 8.04821 36.9111 7.26234 38.9523 7.26234C41.0956 7.26234 42.7591 8.00738 43.943 9.49746V7.691ZM36.656 18.4685C37.452 19.2646 38.4624 19.6626 39.6871 19.6626C40.9119 19.6626 41.9222 19.2646 42.7183 18.4685C43.5348 17.6521 43.943 16.611 43.943 15.3455C43.943 14.08 43.5348 13.0491 42.7183 12.2531C41.9222 11.4366 40.9119 11.0284 39.6871 11.0284C38.4624 11.0284 37.452 11.4366 36.656 12.2531C35.8599 13.0491 35.4618 14.08 35.4618 15.3455C35.4618 16.611 35.8599 17.6521 36.656 18.4685ZM51.4744 23V0.648854H55.4241V23H51.4744Z"
      fill="#6940DA"
    />
  </svg>